# Blender v2.78 (sub 0) OBJ File: ''
# www.blender.org
o Cube
v 0.300000 -1.000000 -0.400000
v 0.300000 -1.000000 0.300000
v -0.400000 -1.000000 0.300000
v -0.400000 -1.000000 -0.400000
v 0.300000 1.000000 -0.399999
v 0.299999 1.000000 0.300001
v -0.400000 1.000000 0.300000
v -0.400000 1.000000 -0.400000
v -0.046277 1.500000 -0.053723
v -0.046277 1.500000 -0.046277
v -0.053723 1.500000 -0.053723
v -0.053723 1.500000 -0.046277
vt 0.7500 0.7632
vt 1.0000 1.0000
vt 0.7500 1.0000
vt 0.7500 0.1691
vt 0.6237 0.0000
vt 0.6263 0.0000
vt 0.5000 0.6764
vt 0.2500 0.0000
vt 0.5000 0.0000
vt 0.5000 0.1691
vt 0.7500 0.8456
vt 0.5000 0.8456
vt 0.7500 0.2071
vt 1.0000 0.7632
vt 0.7500 0.7632
vt 0.2500 0.8456
vt 0.0000 0.1691
vt 0.2500 0.1691
vt 0.8763 0.0000
vt 0.8737 0.0014
vt 0.8737 0.0000
vt 0.2500 0.6764
vt 0.3763 0.8456
vt 0.3737 0.8456
vt 0.8763 0.0014
vt 1.0000 0.2071
vt 0.1263 0.0000
vt 1.0000 0.7632
vt 0.0000 0.8456
vt 0.1237 0.0000
vn 0.0000 -1.0000 0.0000
vn -0.0000 0.5693 0.8221
vn 1.0000 -0.0000 0.0000
vn -0.0000 -0.0000 1.0000
vn -1.0000 -0.0000 -0.0000
vn 0.0000 0.0000 -1.0000
vn 0.0000 1.0000 0.0000
vn 0.8221 0.5693 0.0000
vn -0.8221 0.5693 -0.0000
vn 0.0000 0.5693 -0.8221
s off
f 1/1/1 3/2/1 4/3/1
f 7/4/2 10/5/2 12/6/2
f 5/7/3 2/8/3 1/9/3
f 6/10/4 3/11/4 2/12/4
f 7/13/5 4/14/5 3/15/5
f 1/16/6 8/17/6 5/18/6
f 9/19/7 12/20/7 10/21/7
f 6/22/8 9/23/8 10/24/8
f 7/13/9 11/25/9 8/26/9
f 8/17/10 9/27/10 5/18/10
f 1/1/1 2/28/1 3/2/1
f 7/4/2 6/10/2 10/5/2
f 5/7/3 6/22/3 2/8/3
f 6/10/4 7/4/4 3/11/4
f 7/13/5 8/26/5 4/14/5
f 1/16/6 4/29/6 8/17/6
f 9/19/7 11/25/7 12/20/7
f 6/22/8 5/7/8 9/23/8
f 7/13/9 12/20/9 11/25/9
f 8/17/10 11/30/10 9/27/10
